# xmcd
#
# Track frame offsets: 
#        150
#        19124
#        37100
#        66253
#        88129
#        106794
#        134566
#        156466
#        171801
#        198786
#
# Disc length: 2898 seconds
#
# Revision: 2
# Processed by: cddbd v1.5.2PL0 Copyright (c) Steve Scherf et al.
# Submitted via: ExactAudioCopy v0.99pb5
#
DISCID=880b500a
DTITLE=Rusty Wright Band - Playin' With Fire
DYEAR=2009
DGENRE=Blues
TTITLE0=World Upside Down
TTITLE1=Pretty Little Lies
TTITLE2=Lost Souls
TTITLE3=Messin' Round
TTITLE4=Make A Liar Out Of Me
TTITLE5=Last Days Of Whitey Malone
TTITLE6=You Ain't Thinkin' Bout Me
TTITLE7=What A Ride
TTITLE8=A Change In The Weather
TTITLE9=Playin' With Fire
EXTD=
EXTT0=
EXTT1=
EXTT2=
EXTT3=
EXTT4=
EXTT5=
EXTT6=
EXTT7=
EXTT8=
EXTT9=
PLAYORDER=
